<?xml version="1.0" encoding="utf-8"?>
<!-- Generator: Adobe Illustrator 19.2.1, SVG Export Plug-In . SVG Version: 6.00 Build 0)  -->
<svg version="1.1" id="Layer_1" xmlns="http://www.w3.org/2000/svg" xmlns:xlink="http://www.w3.org/1999/xlink" x="0px" y="0px"
	 viewBox="0 0 1800 300" style="enable-background:new 0 0 1800 300;" xml:space="preserve">
<style type="text/css">
	.st0{stroke:#000000;stroke-miterlimit:10;}
	.st1{fill:#0B16F9;}
	.st2{fill:url(#SVGID_1_);stroke:#0C0C0C;stroke-width:0.75;stroke-miterlimit:10;}
	.st3{fill:url(#SVGID_2_);stroke:#0C0C0C;stroke-width:2;stroke-miterlimit:10;}
	.st4{fill:url(#SVGID_3_);stroke:#0C0C0C;stroke-width:2;stroke-miterlimit:10;}
	.st5{fill:url(#SVGID_4_);stroke:#0C0C0C;stroke-width:2;stroke-miterlimit:10;}
	.st6{fill:url(#SVGID_5_);stroke:#0C0C0C;stroke-width:2;stroke-miterlimit:10;}
	.st7{fill:url(#SVGID_6_);}
	.st8{fill:url(#SVGID_7_);}
	.st9{fill:url(#SVGID_8_);}
	.st10{fill:url(#SVGID_9_);}
	.st11{fill:url(#SVGID_10_);}
	.st12{fill:url(#SVGID_11_);}
	.st13{fill:url(#SVGID_12_);}
	.st14{fill:url(#SVGID_13_);}
	.st15{fill:url(#SVGID_14_);}
	.st16{fill:url(#SVGID_15_);}
	.st17{fill:url(#SVGID_16_);}
	.st18{fill:url(#SVGID_17_);}
	.st19{fill:#545353;stroke:#0C0C0C;stroke-width:2;stroke-miterlimit:10;}
	.st20{fill:url(#SVGID_18_);}
	.st21{fill:url(#SVGID_19_);}
	.st22{fill:url(#SVGID_20_);}
	.st23{fill:url(#SVGID_21_);}
	.st24{fill:url(#SVGID_22_);}
	.st25{fill:url(#SVGID_23_);}
	.st26{fill:url(#SVGID_24_);}
	.st27{fill:url(#SVGID_25_);}
	.st28{fill:url(#SVGID_26_);}
	.st29{fill:url(#SVGID_27_);}
	.st30{fill:#545353;}
	.st31{fill:url(#SVGID_28_);}
	.st32{fill:url(#SVGID_29_);}
	.st33{fill:url(#SVGID_30_);}
	.st34{fill:url(#SVGID_31_);}
	.st35{fill:#1313B7;}
	.st36{font-family:'SegoeScript';}
	.st37{font-size:103.1205px;}
</style>
<rect y="0" class="st0" width="1800" height="300"/>
<path class="st1" d="M818.7,157.5c0,0,13.1,3.9,17.1,2.4c4-1.6,34.7-14.3,34.7-14.3s5.9-5.7-11.2-5.2l-24,9.9c0,0-2.6,3.9-13.3,0
	s-111-20.4-161.4,22.5s-19.7,25.3-63,49.1c0,0-20.2,6.8-2.6,9.6c11.4,1.8,35.8,8.6,83.9,10.9c26,1.3,58.9,1.3,100.5-1.4
	c0,0,119.1-7.5,77.2-55.2c0,0-52.9-38.7-130.4-7.8c0,0-30.8,19.2,8.3,32.8c0,0,62.5,14.6,76.3-11c0,0,1.6-12.7-21.5-10.6
	c0,0-11.5,4,3.2,7c0,0,9.9,10.4-29.8,11.8c0,0-50-3.2-21.8-26.2c0,0,60.2-25.6,104.4,12.1c0,0,30,41-99.3,41.4c0,0-86.2-3-76.3-50.5
	C669.6,184.7,691,137.6,818.7,157.5z"/>
<g>
	
		<linearGradient id="SVGID_1_" gradientUnits="userSpaceOnUse" x1="116" y1="145.24" x2="372" y2="145.24" gradientTransform="matrix(1 0 0 -1 0 299.89)">
		<stop  offset="3.061225e-002" style="stop-color:#D7D7D7"/>
		<stop  offset="0.5547" style="stop-color:#D9D9D9"/>
		<stop  offset="0.7435" style="stop-color:#E0E0E0"/>
		<stop  offset="0.8775" style="stop-color:#EBEBEB"/>
		<stop  offset="0.9856" style="stop-color:#FCFCFC"/>
		<stop  offset="1" style="stop-color:#FFFFFF"/>
	</linearGradient>
	<polygon class="st2" points="116,20.8 116,235.8 243.8,288.5 372,235.8 372,20.8 	"/>
	
		<linearGradient id="SVGID_2_" gradientUnits="userSpaceOnUse" x1="127.1" y1="223.94" x2="238.7" y2="223.94" gradientTransform="matrix(1 0 0 -1 0 299.89)">
		<stop  offset="3.061225e-002" style="stop-color:#828282"/>
		<stop  offset="0.2246" style="stop-color:#858585"/>
		<stop  offset="0.3958" style="stop-color:#909090"/>
		<stop  offset="0.5584" style="stop-color:#A2A2A2"/>
		<stop  offset="0.7157" style="stop-color:#BCBCBC"/>
		<stop  offset="0.8677" style="stop-color:#DCDCDC"/>
		<stop  offset="1" style="stop-color:#FFFFFF"/>
	</linearGradient>
	<rect x="127.1" y="31.2" class="st3" width="111.6" height="89.5"/>
	
		<linearGradient id="SVGID_3_" gradientUnits="userSpaceOnUse" x1="249.9" y1="223.94" x2="361.5" y2="223.94" gradientTransform="matrix(1 0 0 -1 0 299.89)">
		<stop  offset="3.061225e-002" style="stop-color:#828282"/>
		<stop  offset="0.2246" style="stop-color:#858585"/>
		<stop  offset="0.3958" style="stop-color:#909090"/>
		<stop  offset="0.5584" style="stop-color:#A2A2A2"/>
		<stop  offset="0.7157" style="stop-color:#BCBCBC"/>
		<stop  offset="0.8677" style="stop-color:#DCDCDC"/>
		<stop  offset="1" style="stop-color:#FFFFFF"/>
	</linearGradient>
	<rect x="249.9" y="31.2" class="st4" width="111.6" height="89.5"/>
	
		<linearGradient id="SVGID_4_" gradientUnits="userSpaceOnUse" x1="249.9" y1="96.84" x2="361.4" y2="96.84" gradientTransform="matrix(1 0 0 -1 0 299.89)">
		<stop  offset="3.061225e-002" style="stop-color:#828282"/>
		<stop  offset="0.2246" style="stop-color:#858585"/>
		<stop  offset="0.3958" style="stop-color:#909090"/>
		<stop  offset="0.5584" style="stop-color:#A2A2A2"/>
		<stop  offset="0.7157" style="stop-color:#BCBCBC"/>
		<stop  offset="0.8677" style="stop-color:#DCDCDC"/>
		<stop  offset="1" style="stop-color:#FFFFFF"/>
	</linearGradient>
	<polygon class="st5" points="361.4,130.8 249.9,130.8 249.9,275.3 361.4,228.5 	"/>
	
		<linearGradient id="SVGID_5_" gradientUnits="userSpaceOnUse" x1="127.1" y1="96.84" x2="238.6" y2="96.84" gradientTransform="matrix(1 0 0 -1 0 299.89)">
		<stop  offset="3.061225e-002" style="stop-color:#828282"/>
		<stop  offset="0.2246" style="stop-color:#858585"/>
		<stop  offset="0.3958" style="stop-color:#909090"/>
		<stop  offset="0.5584" style="stop-color:#A2A2A2"/>
		<stop  offset="0.7157" style="stop-color:#BCBCBC"/>
		<stop  offset="0.8677" style="stop-color:#DCDCDC"/>
		<stop  offset="1" style="stop-color:#FFFFFF"/>
	</linearGradient>
	<polygon class="st6" points="127.1,130.8 238.6,130.8 238.6,275.3 127.1,228.5 	"/>
	
		<linearGradient id="SVGID_6_" gradientUnits="userSpaceOnUse" x1="331.3321" y1="252.3349" x2="318.6567" y2="274.2893" gradientTransform="matrix(1 0 0 -1 0 299.89)">
		<stop  offset="8.673470e-002" style="stop-color:#8E8A8A"/>
		<stop  offset="0.1228" style="stop-color:#949191"/>
		<stop  offset="0.407" style="stop-color:#C2C0C0"/>
		<stop  offset="0.6581" style="stop-color:#E3E2E2"/>
		<stop  offset="0.8643" style="stop-color:#F8F7F7"/>
		<stop  offset="1" style="stop-color:#FFFFFF"/>
	</linearGradient>
	<path class="st7" d="M350.6,11.2c0,0-6.6,34.6-49.8,53.2v-19C300.7,45.4,337.9,7,350.6,11.2z"/>
	
		<linearGradient id="SVGID_7_" gradientUnits="userSpaceOnUse" x1="341.0835" y1="228.5404" x2="331.4157" y2="245.2855" gradientTransform="matrix(1 0 0 -1 0 299.89)">
		<stop  offset="8.673470e-002" style="stop-color:#8E8A8A"/>
		<stop  offset="0.1228" style="stop-color:#949191"/>
		<stop  offset="0.407" style="stop-color:#C2C0C0"/>
		<stop  offset="0.6581" style="stop-color:#E3E2E2"/>
		<stop  offset="0.8643" style="stop-color:#F8F7F7"/>
		<stop  offset="1" style="stop-color:#FFFFFF"/>
	</linearGradient>
	<path class="st8" d="M364.2,40c0,0-11.7,26.1-21.6,30.4S310,88.9,310,88.9l2.5-23C312.5,65.9,359.3,36.8,364.2,40z"/>
	
		<linearGradient id="SVGID_8_" gradientUnits="userSpaceOnUse" x1="345.2186" y1="203.5547" x2="335.6693" y2="220.0945" gradientTransform="matrix(1 0 0 -1 0 299.89)">
		<stop  offset="8.673470e-002" style="stop-color:#8E8A8A"/>
		<stop  offset="0.1228" style="stop-color:#949191"/>
		<stop  offset="0.407" style="stop-color:#C2C0C0"/>
		<stop  offset="0.6581" style="stop-color:#E3E2E2"/>
		<stop  offset="0.8643" style="stop-color:#F8F7F7"/>
		<stop  offset="1" style="stop-color:#FFFFFF"/>
	</linearGradient>
	<path class="st9" d="M369.8,72.2c0,0-13.1,19.9-26.8,25c0,0-23.8,14.7-27.5,14.9c-3.7,0.2,4.4-23.2,4.4-23.2S372.2,61.4,369.8,72.2
		z"/>
	
		<linearGradient id="SVGID_9_" gradientUnits="userSpaceOnUse" x1="347.5659" y1="174.711" x2="337.5291" y2="192.0953" gradientTransform="matrix(1 0 0 -1 0 299.89)">
		<stop  offset="8.673470e-002" style="stop-color:#8E8A8A"/>
		<stop  offset="0.1228" style="stop-color:#949191"/>
		<stop  offset="0.407" style="stop-color:#C2C0C0"/>
		<stop  offset="0.6581" style="stop-color:#E3E2E2"/>
		<stop  offset="0.8643" style="stop-color:#F8F7F7"/>
		<stop  offset="1" style="stop-color:#FFFFFF"/>
	</linearGradient>
	<path class="st10" d="M369.9,96.4c0,0-12.2,26-25.6,30.2c0,0-11.2,8-27.3,13.1c0,0,3.2-21.9,7.2-24.2
		C328.3,113.3,353.2,97.2,369.9,96.4z"/>
	
		<linearGradient id="SVGID_10_" gradientUnits="userSpaceOnUse" x1="347.2928" y1="142.518" x2="336.4137" y2="161.3612" gradientTransform="matrix(1 0 0 -1 0 299.89)">
		<stop  offset="8.673470e-002" style="stop-color:#8E8A8A"/>
		<stop  offset="0.1228" style="stop-color:#949191"/>
		<stop  offset="0.407" style="stop-color:#C2C0C0"/>
		<stop  offset="0.6581" style="stop-color:#E3E2E2"/>
		<stop  offset="0.8643" style="stop-color:#F8F7F7"/>
		<stop  offset="1" style="stop-color:#FFFFFF"/>
	</linearGradient>
	<path class="st11" d="M314.5,168c0,0,6-20.9,9.6-22.3s37.7-16.5,47.3-14c0,0-15.3,22.6-31,29.4C324.5,168,314.5,168,314.5,168z"/>
	
		<linearGradient id="SVGID_11_" gradientUnits="userSpaceOnUse" x1="339.356" y1="112.305" x2="328.8923" y2="130.4287" gradientTransform="matrix(1 0 0 -1 0 299.89)">
		<stop  offset="8.673470e-002" style="stop-color:#8E8A8A"/>
		<stop  offset="0.1228" style="stop-color:#949191"/>
		<stop  offset="0.407" style="stop-color:#C2C0C0"/>
		<stop  offset="0.6581" style="stop-color:#E3E2E2"/>
		<stop  offset="0.8643" style="stop-color:#F8F7F7"/>
		<stop  offset="1" style="stop-color:#FFFFFF"/>
	</linearGradient>
	<path class="st12" d="M360.4,164.7c0,0-8.9,18.4-23.2,23.7c-14.4,5.3-27.3,7.5-27.3,7.5s7.9-20,11.6-22.2
		C325,171.6,357,162.8,360.4,164.7z"/>
	
		<linearGradient id="SVGID_12_" gradientUnits="userSpaceOnUse" x1="331.7652" y1="88.6337" x2="322.8221" y2="104.1236" gradientTransform="matrix(1 0 0 -1 0 299.89)">
		<stop  offset="8.673470e-002" style="stop-color:#8E8A8A"/>
		<stop  offset="0.1228" style="stop-color:#949191"/>
		<stop  offset="0.407" style="stop-color:#C2C0C0"/>
		<stop  offset="0.6581" style="stop-color:#E3E2E2"/>
		<stop  offset="0.8643" style="stop-color:#F8F7F7"/>
		<stop  offset="1" style="stop-color:#FFFFFF"/>
	</linearGradient>
	<path class="st13" d="M354.5,193.1c0,0-10.7,14.1-24.5,18.1c0,0-18,7.4-25.4,8.1c-7.5,0.8,9.7-18.6,9.7-18.6
		S349.4,188.4,354.5,193.1z"/>
	
		<linearGradient id="SVGID_13_" gradientUnits="userSpaceOnUse" x1="318.8651" y1="62.5876" x2="310.6069" y2="76.8912" gradientTransform="matrix(1 0 0 -1 0 299.89)">
		<stop  offset="8.673470e-002" style="stop-color:#8E8A8A"/>
		<stop  offset="0.1228" style="stop-color:#949191"/>
		<stop  offset="0.407" style="stop-color:#C2C0C0"/>
		<stop  offset="0.6581" style="stop-color:#E3E2E2"/>
		<stop  offset="0.8643" style="stop-color:#F8F7F7"/>
		<stop  offset="1" style="stop-color:#FFFFFF"/>
	</linearGradient>
	<path class="st14" d="M336.7,219.3l-12.6,15c0,0-21.8,5.8-29.8,6.8c-7.9,1,13.1-16.2,13.1-16.2L336.7,219.3z"/>
	
		<linearGradient id="SVGID_14_" gradientUnits="userSpaceOnUse" x1="301.68" y1="36.7036" x2="292.0717" y2="53.3456" gradientTransform="matrix(1 0 0 -1 0 299.89)">
		<stop  offset="8.673470e-002" style="stop-color:#8E8A8A"/>
		<stop  offset="0.1228" style="stop-color:#949191"/>
		<stop  offset="0.407" style="stop-color:#C2C0C0"/>
		<stop  offset="0.6581" style="stop-color:#E3E2E2"/>
		<stop  offset="0.8643" style="stop-color:#F8F7F7"/>
		<stop  offset="1" style="stop-color:#FFFFFF"/>
	</linearGradient>
	<polygon class="st15" points="305.6,260.9 323.4,245.6 285.7,250.2 271.2,265.6 	"/>
	
		<linearGradient id="SVGID_15_" gradientUnits="userSpaceOnUse" x1="261.7601" y1="33.3131" x2="252.9698" y2="48.5385" gradientTransform="matrix(1 0 0 -1 0 299.89)">
		<stop  offset="8.673470e-002" style="stop-color:#8E8A8A"/>
		<stop  offset="0.1228" style="stop-color:#949191"/>
		<stop  offset="0.407" style="stop-color:#C2C0C0"/>
		<stop  offset="0.6581" style="stop-color:#E3E2E2"/>
		<stop  offset="0.8643" style="stop-color:#F8F7F7"/>
		<stop  offset="1" style="stop-color:#FFFFFF"/>
	</linearGradient>
	<path class="st16" d="M234.8,261.8c0,0,25.1-11.6,42.4-10.4c0,0-8.5,13.1-13.5,13.6C258.6,265.5,242,266.5,234.8,261.8z"/>
	
		<linearGradient id="SVGID_16_" gradientUnits="userSpaceOnUse" x1="272.2104" y1="49.2607" x2="263.2245" y2="64.8248" gradientTransform="matrix(1 0 0 -1 0 299.89)">
		<stop  offset="8.673470e-002" style="stop-color:#8E8A8A"/>
		<stop  offset="0.1228" style="stop-color:#949191"/>
		<stop  offset="0.407" style="stop-color:#C2C0C0"/>
		<stop  offset="0.6581" style="stop-color:#E3E2E2"/>
		<stop  offset="0.8643" style="stop-color:#F8F7F7"/>
		<stop  offset="1" style="stop-color:#FFFFFF"/>
	</linearGradient>
	<path class="st17" d="M239.8,254.6c0,0,5.6-14.2,25-17.6c0,0,26.8-9.5,29.4-8.2S283,244.4,283,244.4S250.4,254.6,239.8,254.6z"/>
	
		<linearGradient id="SVGID_17_" gradientUnits="userSpaceOnUse" x1="279.1827" y1="69.7286" x2="270.1221" y2="85.422" gradientTransform="matrix(1 0 0 -1 0 299.89)">
		<stop  offset="8.673470e-002" style="stop-color:#8E8A8A"/>
		<stop  offset="0.1228" style="stop-color:#949191"/>
		<stop  offset="0.407" style="stop-color:#C2C0C0"/>
		<stop  offset="0.6581" style="stop-color:#E3E2E2"/>
		<stop  offset="0.8643" style="stop-color:#F8F7F7"/>
		<stop  offset="1" style="stop-color:#FFFFFF"/>
	</linearGradient>
	<path class="st18" d="M301.8,206.3c0,0-1.8,12.1-11,17.2c-9.2,5.1-42.5,15.5-42.9,15.5c-0.5,0,10-22.2,24.9-24.5L301.8,206.3z"/>
	<path class="st19" d="M298.4,201.1"/>
	
		<linearGradient id="SVGID_18_" gradientUnits="userSpaceOnUse" x1="289.8512" y1="93.8544" x2="279.7791" y2="111.2998" gradientTransform="matrix(1 0 0 -1 0 299.89)">
		<stop  offset="8.673470e-002" style="stop-color:#8E8A8A"/>
		<stop  offset="0.1228" style="stop-color:#949191"/>
		<stop  offset="0.407" style="stop-color:#C2C0C0"/>
		<stop  offset="0.6581" style="stop-color:#E3E2E2"/>
		<stop  offset="0.8643" style="stop-color:#F8F7F7"/>
		<stop  offset="1" style="stop-color:#FFFFFF"/>
	</linearGradient>
	<path class="st20" d="M311,181c0,0-5.8,13.7-12.6,20.1c0,0-33.3,11.6-39.9,12.3c0,0,7.4-17.2,11.9-19.3S306.7,179.9,311,181z"/>
	
		<linearGradient id="SVGID_19_" gradientUnits="userSpaceOnUse" x1="293.569" y1="119.8201" x2="283.8243" y2="136.6983" gradientTransform="matrix(1 0 0 -1 0 299.89)">
		<stop  offset="8.673470e-002" style="stop-color:#8E8A8A"/>
		<stop  offset="0.1228" style="stop-color:#949191"/>
		<stop  offset="0.407" style="stop-color:#C2C0C0"/>
		<stop  offset="0.6581" style="stop-color:#E3E2E2"/>
		<stop  offset="0.8643" style="stop-color:#F8F7F7"/>
		<stop  offset="1" style="stop-color:#FFFFFF"/>
	</linearGradient>
	<path class="st21" d="M264.3,190.7c0,0,39-15.8,41.3-17.6c2.3-1.9,7.4-20.7,7.4-20.7s-4.3-2.9-42.7,18.6
		C270.3,171,263,188.2,264.3,190.7z"/>
	
		<linearGradient id="SVGID_20_" gradientUnits="userSpaceOnUse" x1="295.4195" y1="148.6272" x2="286.3167" y2="164.3938" gradientTransform="matrix(1 0 0 -1 0 299.89)">
		<stop  offset="8.673470e-002" style="stop-color:#8E8A8A"/>
		<stop  offset="0.1228" style="stop-color:#949191"/>
		<stop  offset="0.407" style="stop-color:#C2C0C0"/>
		<stop  offset="0.6581" style="stop-color:#E3E2E2"/>
		<stop  offset="0.8643" style="stop-color:#F8F7F7"/>
		<stop  offset="1" style="stop-color:#FFFFFF"/>
	</linearGradient>
	<path class="st22" d="M266,164.5c0,0,39.3-17.3,42-20.9s7-22.6,6.5-23.5c-0.5-0.8-40.3,22.2-42.2,25.1S264.8,163.2,266,164.5z"/>
	
		<linearGradient id="SVGID_21_" gradientUnits="userSpaceOnUse" x1="289.3707" y1="172.2544" x2="280.6484" y2="187.362" gradientTransform="matrix(1 0 0 -1 0 299.89)">
		<stop  offset="8.673470e-002" style="stop-color:#8E8A8A"/>
		<stop  offset="0.1228" style="stop-color:#949191"/>
		<stop  offset="0.407" style="stop-color:#C2C0C0"/>
		<stop  offset="0.6581" style="stop-color:#E3E2E2"/>
		<stop  offset="0.8643" style="stop-color:#F8F7F7"/>
		<stop  offset="1" style="stop-color:#FFFFFF"/>
	</linearGradient>
	<path class="st23" d="M260.4,144.4c0,0,44.6-25.4,46.8-29.2c2.2-3.8,5.8-15.7,2.9-18.4c-2.9-2.7-45.4,30.3-45.4,30.3
		S259,142.1,260.4,144.4z"/>
	
		<linearGradient id="SVGID_22_" gradientUnits="userSpaceOnUse" x1="287.7382" y1="193.7968" x2="277.5127" y2="211.5078" gradientTransform="matrix(1 0 0 -1 0 299.89)">
		<stop  offset="8.673470e-002" style="stop-color:#8E8A8A"/>
		<stop  offset="0.1228" style="stop-color:#949191"/>
		<stop  offset="0.407" style="stop-color:#C2C0C0"/>
		<stop  offset="0.6581" style="stop-color:#E3E2E2"/>
		<stop  offset="0.8643" style="stop-color:#F8F7F7"/>
		<stop  offset="1" style="stop-color:#FFFFFF"/>
	</linearGradient>
	<path class="st24" d="M259.3,122.1c0,0-0.9-14.9,3.6-19.9c4.6-5,40.7-29.9,42.7-29.8s2.6,11.3-4.2,20.7
		C294.7,102.4,263.2,120.8,259.3,122.1z"/>
	
		<linearGradient id="SVGID_23_" gradientUnits="userSpaceOnUse" x1="280.6992" y1="214.4793" x2="269.103" y2="234.5645" gradientTransform="matrix(1 0 0 -1 0 299.89)">
		<stop  offset="8.673470e-002" style="stop-color:#8E8A8A"/>
		<stop  offset="0.1228" style="stop-color:#949191"/>
		<stop  offset="0.407" style="stop-color:#C2C0C0"/>
		<stop  offset="0.6581" style="stop-color:#E3E2E2"/>
		<stop  offset="0.8643" style="stop-color:#F8F7F7"/>
		<stop  offset="1" style="stop-color:#FFFFFF"/>
	</linearGradient>
	<path class="st25" d="M294.3,50.8c0,0-27.2,16.6-38.5,29.2c0,0-3.3,16.2-0.7,19.2c2.6,2.9,38.3-27.8,38.3-27.8S296,52.7,294.3,50.8
		z"/>
	
		<linearGradient id="SVGID_24_" gradientUnits="userSpaceOnUse" x1="236.9726" y1="178.7925" x2="223.9274" y2="201.3875" gradientTransform="matrix(1 0 0 -1 0 299.89)">
		<stop  offset="8.673470e-002" style="stop-color:#8E8A8A"/>
		<stop  offset="0.1228" style="stop-color:#949191"/>
		<stop  offset="0.407" style="stop-color:#C2C0C0"/>
		<stop  offset="0.6581" style="stop-color:#E3E2E2"/>
		<stop  offset="0.8643" style="stop-color:#F8F7F7"/>
		<stop  offset="1" style="stop-color:#FFFFFF"/>
	</linearGradient>
	<path class="st26" d="M212.2,135.4c0,0,30-28.6,36.5-31.5s0-19.7,0-19.7s-34.7,22-35.4,30.6C212.6,123.3,211.9,128.2,212.2,135.4z"
		/>
	
		<linearGradient id="SVGID_25_" gradientUnits="userSpaceOnUse" x1="238.9404" y1="155.4327" x2="227.6934" y2="174.9131" gradientTransform="matrix(1 0 0 -1 0 299.89)">
		<stop  offset="8.673470e-002" style="stop-color:#8E8A8A"/>
		<stop  offset="0.1228" style="stop-color:#949191"/>
		<stop  offset="0.407" style="stop-color:#C2C0C0"/>
		<stop  offset="0.6581" style="stop-color:#E3E2E2"/>
		<stop  offset="0.8643" style="stop-color:#F8F7F7"/>
		<stop  offset="1" style="stop-color:#FFFFFF"/>
	</linearGradient>
	<path class="st27" d="M211.5,160.3c0,0,36.9-25.2,41-34.4s4.1-14.7,3-16.1s-27.5,14.8-44,34.2C211.5,144,210.3,154.4,211.5,160.3z"
		/>
	
		<linearGradient id="SVGID_26_" gradientUnits="userSpaceOnUse" x1="236.7248" y1="129.2124" x2="226.0169" y2="147.759" gradientTransform="matrix(1 0 0 -1 0 299.89)">
		<stop  offset="8.673470e-002" style="stop-color:#8E8A8A"/>
		<stop  offset="0.1228" style="stop-color:#949191"/>
		<stop  offset="0.407" style="stop-color:#C2C0C0"/>
		<stop  offset="0.6581" style="stop-color:#E3E2E2"/>
		<stop  offset="0.8643" style="stop-color:#F8F7F7"/>
		<stop  offset="1" style="stop-color:#FFFFFF"/>
	</linearGradient>
	<path class="st28" d="M208.8,186.8c0,0,40.1-27.1,43.5-39.6c3.4-12.5,1.4-11,1.4-11s-41.2,27.5-42.8,36.6
		C209.4,181.9,208.8,186.8,208.8,186.8z"/>
	
		<linearGradient id="SVGID_27_" gradientUnits="userSpaceOnUse" x1="237.8606" y1="111.4783" x2="228.6099" y2="127.5011" gradientTransform="matrix(1 0 0 -1 0 299.89)">
		<stop  offset="8.673470e-002" style="stop-color:#8E8A8A"/>
		<stop  offset="0.1228" style="stop-color:#949191"/>
		<stop  offset="0.407" style="stop-color:#C2C0C0"/>
		<stop  offset="0.6581" style="stop-color:#E3E2E2"/>
		<stop  offset="0.8643" style="stop-color:#F8F7F7"/>
		<stop  offset="1" style="stop-color:#FFFFFF"/>
	</linearGradient>
	<path class="st29" d="M206.3,197.1c0,0,37-32.8,53-42.5c0,0,2.1,7.5-5,16.4s-17.2,6.2-46.6,34.6
		C207.7,205.7,206.1,208.8,206.3,197.1z"/>
	<path class="st30" d="M203.4,222.6"/>
	
		<linearGradient id="SVGID_28_" gradientUnits="userSpaceOnUse" x1="236.8918" y1="93.1884" x2="230.2279" y2="104.7307" gradientTransform="matrix(1 0 0 -1 0 299.89)">
		<stop  offset="8.673470e-002" style="stop-color:#8E8A8A"/>
		<stop  offset="0.1228" style="stop-color:#949191"/>
		<stop  offset="0.407" style="stop-color:#C2C0C0"/>
		<stop  offset="0.6581" style="stop-color:#E3E2E2"/>
		<stop  offset="0.8643" style="stop-color:#F8F7F7"/>
		<stop  offset="1" style="stop-color:#FFFFFF"/>
	</linearGradient>
	<path class="st31" d="M205.4,223.1c0,0,41-26.9,48.1-25.9c0,0,10.3-14.7,8.3-18.3s-46.1,27.1-56.4,38.4
		C205.4,217.2,204.9,221.6,205.4,223.1z"/>
	
		<linearGradient id="SVGID_29_" gradientUnits="userSpaceOnUse" x1="233.5377" y1="73.8287" x2="227.4312" y2="84.4055" gradientTransform="matrix(1 0 0 -1 0 299.89)">
		<stop  offset="8.673470e-002" style="stop-color:#8E8A8A"/>
		<stop  offset="0.1228" style="stop-color:#949191"/>
		<stop  offset="0.407" style="stop-color:#C2C0C0"/>
		<stop  offset="0.6581" style="stop-color:#E3E2E2"/>
		<stop  offset="0.8643" style="stop-color:#F8F7F7"/>
		<stop  offset="1" style="stop-color:#FFFFFF"/>
	</linearGradient>
	<path class="st32" d="M201.5,239.5c0,0,48.6-19.4,51.9-26.6c0,0,7-9,6.1-10.8s-45.1,16.5-58.1,32
		C201.5,234.1,201,237.6,201.5,239.5z"/>
	
		<linearGradient id="SVGID_30_" gradientUnits="userSpaceOnUse" x1="224.3348" y1="52.5586" x2="216.7252" y2="65.7389" gradientTransform="matrix(1 0 0 -1 0 299.89)">
		<stop  offset="8.673470e-002" style="stop-color:#8E8A8A"/>
		<stop  offset="0.1228" style="stop-color:#949191"/>
		<stop  offset="0.407" style="stop-color:#C2C0C0"/>
		<stop  offset="0.6581" style="stop-color:#E3E2E2"/>
		<stop  offset="0.8643" style="stop-color:#F8F7F7"/>
		<stop  offset="1" style="stop-color:#FFFFFF"/>
	</linearGradient>
	<path class="st33" d="M194.4,251.4c0,0-5.8,8.2,9,1.6c14.8-6.6,35.6-10.9,40.6-18.5c5-7.5,3.8-7.5,3.8-7.5s-41,10.4-48.4,17.6
		C197.8,246.2,194.3,250.1,194.4,251.4z"/>
	
		<linearGradient id="SVGID_31_" gradientUnits="userSpaceOnUse" x1="199.8017" y1="22.4339" x2="191.9046" y2="36.1122" gradientTransform="matrix(1 0 0 -1 0 299.89)">
		<stop  offset="8.673470e-002" style="stop-color:#8E8A8A"/>
		<stop  offset="0.1228" style="stop-color:#949191"/>
		<stop  offset="0.407" style="stop-color:#C2C0C0"/>
		<stop  offset="0.6581" style="stop-color:#E3E2E2"/>
		<stop  offset="0.8643" style="stop-color:#F8F7F7"/>
		<stop  offset="1" style="stop-color:#FFFFFF"/>
	</linearGradient>
	<path class="st34" d="M148.2,291.2c0,0,51.7-38,92.4-46.2c0,0-9.3,15-19.3,20C211.5,270,151.2,293,148.2,291.2z"/>
	<path class="st35" d="M184.7,259.1c0,0,7.5-6,5.5-10.5c-2.1-4.5-22-3.4-22-3.4S177.6,258.7,184.7,259.1z"/>
	<path class="st35" d="M192,241.8c0,0,6.3-3.6,6.2-11.9c0,0-26.4-13.9-41.5-11.6C156.7,218.3,153.1,233.4,192,241.8z"/>
	<path class="st35" d="M197.6,222.6c0,0,4.6-6.1,3.1-11.9c0,0-2.6-3.8-10-4.1C190.7,206.6,191.9,219.9,197.6,222.6z"/>
	<path class="st35" d="M184.6,218.1c0,0-3.4-14.4-7-17.6c-3.6-3.2-32-11.8-39.5-10.7C138.1,189.7,144.3,212,184.6,218.1z"/>
	<path class="st35" d="M202,202.7c0,0,3.2-9.6,1.1-15.9c0,0-14.4-7.6-22.2-7.6C180.9,179.2,184.2,202.3,202,202.7z"/>
	<path class="st35" d="M132.2,161.4c0,0,6.2,24.7,48.8,34.2c0,0-6.1-20.8-18.3-24.8S134.2,160.8,132.2,161.4z"/>
	<path class="st35" d="M180,152.2c0,0,24.3,6.3,25.2,9.3s0.7,13.4-1.7,16.1C203.5,177.6,179.7,176.2,180,152.2z"/>
	<path class="st35" d="M177,168.9c0,0-6.4-15.9-6-21.9s-40.4-21.8-46.6-16.2C118.3,136.3,149.2,161.3,177,168.9z"/>
	<path class="st35" d="M205,151.6c0,0,0.2-15.2,1.9-16.2c1.6-1-29.9-15.4-29.9-15.4S175.9,145.5,205,151.6z"/>
	<path class="st35" d="M175.3,139.7c0,0-2.8-21.6-8.5-23.9s-20.9-19.2-38.7-19C128,96.9,131.4,121.7,175.3,139.7z"/>
	<path class="st35" d="M208.7,128.5c0,0,2.8-13,0-16.8s-25.1-15-27.5-15.9c-2.5-0.8,2.7,19.9,2.7,19.9S205.1,128.4,208.7,128.5z"/>
	<path class="st35" d="M176.7,112.2c0,0-1.5-18.9-4.1-21.1c-2.6-2.3-27.8-22.3-48-21C124.6,70,127,90.7,176.7,112.2z"/>
	<path class="st35" d="M186.5,70.7c0,0-0.8,18.2,2.3,21.3c3.2,3.1,20.7,15.2,23.3,15.2s10.1-8.3,10.9-10.5
		C223.8,94.5,187.1,71,186.5,70.7z"/>
	<path class="st35" d="M229.4,93.7c0,0,13.5-8.6,13.7-9.5c0.1-0.9-38.7-33.9-43.6-34.4c0,0-1.4,22,0,22.6
		C200.8,73,226.9,93.5,229.4,93.7z"/>
	<path class="st35" d="M183.8,88.9c0,0-6-7.8-4-22c0,0-41-30.6-47.6-30.4c0,0,0.7,15.8,12.7,29.7C144.9,66.2,173.1,85.9,183.8,88.9z
		"/>
	<path class="st35" d="M193.7,65.3V44.2c0,0-35.5-34.3-49-33.9c0,0-10.2,8.7,19.4,34.3C164.1,44.6,187.3,62.6,193.7,65.3z"/>
	<path class="st35" d="M329.6,289.3c0,0-9.9-16.1-24.9-22c0,0-19.5-0.6-23.8,0.3C276.6,268.5,295.6,279.5,329.6,289.3z"/>
</g>
<text transform="matrix(1.5553 0 0 1 442.1914 135.1673)" class="st1 st36 st37">Actus Manga</text>
</svg>
